<svg xmlns="http://www.w3.org/2000/svg" width="107" height="126" viewBox="0 0 107 126" fill="none">
    <g clip-path="url(#clip0_672_8114)">
        <path d="M77.7246 93.4615V105.923L54.4766 123.577V104.538L72.5198 91.0384C73.9078 90 75.9897 90.3461 77.0306 91.7307C77.3776 92.0769 77.7246 92.7692 77.7246 93.4615Z" fill="#1AAB75"/>
        <path d="M54.4769 123.577L30.8818 105.923V93.4615C30.8818 91.7307 32.2698 90.3461 34.3517 90.3461C35.0457 90.3461 35.7396 90.6923 36.0866 91.0384L54.1299 104.538L54.4769 123.577Z" fill="#1D8F4E"/>
        <path d="M93.339 6.23083V17.6539C93.339 18.0001 92.992 18.3462 92.992 18.6924L54.4766 47.4231V28.7308L87.4402 3.80775C88.8282 2.42313 90.9101 2.42313 92.298 3.80775C92.992 4.50006 93.339 5.19236 93.339 6.23083Z" fill="#EA589B"/>
        <path d="M52.0479 65.7692C52.0479 65.0769 51.7009 64.3846 51.0069 64.0384L9.7156 32.8846C6.93971 31.1538 2.77589 31.8461 1.04096 34.9615C0.346986 36 0 37.0384 0 38.0769V83.0769L15.6144 94.5V60.2307C15.6144 59.1923 16.6553 58.5 17.6963 58.5C18.0433 58.5 18.3902 58.5 18.7372 58.8461L48.578 81.3461C49.619 82.0384 51.0069 82.0384 51.7009 81C52.0479 80.6538 52.0479 80.3077 52.0479 79.6154V65.7692Z" fill="url(#paint0_linear_672_8114)"/>
        <path d="M98.5442 32.8847L57.2529 64.0385C56.5589 64.3847 56.2119 65.077 56.2119 65.7693V79.2693C56.2119 80.3077 57.2529 81.3462 58.2938 81.3462C58.6408 81.3462 59.3348 81.3462 59.6818 81L89.5225 58.5001C90.2165 57.8077 91.6045 58.1539 92.2984 58.8462C92.6454 59.1924 92.6454 59.5385 92.6454 59.8847V94.5L107.913 83.077V38.077C107.913 34.6154 104.79 31.8462 101.32 32.1924C100.626 32.1924 99.5851 32.5385 98.5442 32.8847Z" fill="url(#paint1_linear_672_8114)"/>
        <path d="M21.166 3.4616C19.7781 2.42313 17.3492 2.76929 16.3082 4.1539C15.9612 4.84621 15.6143 5.53852 15.6143 6.23083V30.4616C15.6143 31.5001 15.9612 32.1924 16.6552 32.8847L27.4118 41.1924C28.4527 41.8847 29.4937 41.5385 30.1877 40.5001C30.1877 40.1539 30.5346 39.8077 30.5346 39.4616V32.5385C30.5346 31.8462 31.2286 31.1539 31.9226 31.1539C32.1539 31.1539 32.3852 31.2693 32.6166 31.5001L54.1297 47.4231V28.7308L21.166 3.4616Z" fill="#E62D47"/>
    </g>
    <defs>
        <linearGradient id="paint0_linear_672_8114" x1="0.346986" y1="63.2423" x2="52.1173" y2="63.2423" gradientUnits="userSpaceOnUse">
            <stop stop-color="#FDC41A"/>
            <stop offset="1" stop-color="#F6A21A"/>
        </linearGradient>
        <linearGradient id="paint1_linear_672_8114" x1="56.4895" y1="63.3462" x2="108.26" y2="63.3462" gradientUnits="userSpaceOnUse">
            <stop stop-color="#2C4B9B"/>
            <stop offset="1" stop-color="#3352A0"/>
        </linearGradient>
        <clipPath id="clip0_672_8114">
            <rect width="754" height="126" fill="white"/>
        </clipPath>
    </defs>
</svg>